<?xml version="1.0" encoding="UTF-8"?>
<svg id="Capa_1" data-name="Capa 1" xmlns="http://www.w3.org/2000/svg" version="1.1" viewBox="0 0 282.3 379.7">
  <defs>
    <style>
      .cls-1 {
        fill: #000;
      }

      .cls-1, .cls-2, .cls-3 {
        stroke-width: 0px;
      }

      .cls-2 {
        fill: #111318;
      }

      .cls-3 {
        fill: #f8fafc;
      }
    </style>
  </defs>
  <g>
    <path class="cls-2" d="M258.3,310.3c-5.8-1-11.8-.5-17.8-.5-2.9,0-5.7.3-8.6.5-2.4-12.5-8.5-23.4-12.9-35,2-.2,3.7-.3,5.5-.5,9.2-1.2,15.3-10.2,13.3-19.3-1.7-7.5-6.6-12.3-12.8-16.1-6.2-3.7-12.9-5.8-20-7.1-.7-.1-1.7-.6-1.9-1.2-1.1-2.9-2-5.9-3-8.8,9.6-2.9,18.5-6.9,26.3-13.3,10-8.4,15.6-18.9,15.8-32.1.2-10.2-1.7-20-5-29.5-5.3-15.2-13.2-28.8-25.2-39.6-15.1-13.6-33.2-19.9-53.2-21.6-1.1,0-1.8-.5-2.4-1.4-2.5-4-5-8-7.6-11.9-7.4-11.2-14.7-22.5-22.2-33.6-2-3-3.9-6.4-7.4-7,0-3.8.4-7.5.2-11-.3-4.7-1.8-9.2-4.5-13.2-.7-1-1.6-1.4-2.7-.7-1,.6-1.5,1.4-.9,2.7.2.4.3.9.5,1.3,2.5,4.4,3.4,9.2,3.4,14.2s-.1.6-.3,1c-.2-.3-.4-.5-.4-.6-1.6-6.9-6.4-11-12.4-14-.9-.4-1.9-.6-2.9-.8-1-.2-1.9,0-2.3,1.1-.3,1.1-.1,2,1,2.6.9.5,1.8.9,2.7,1.3,3.9,2,7.2,4.7,9,8.8.2.5.3,1,.5,1.7-.4-.1-.5-.1-.6-.2-.3-.3-.5-.5-.7-.8-6.4-6.6-14.5-9.4-23.3-10.3-1.4-.1-2.2.5-2.3,1.9,0,1.3.6,2.2,2.1,2.3,5.2.7,10.1,2.1,14.7,4.6.6.3,1.2.7,1.7.9-3,.3-6.1.2-8.8,1-2.8.9-5.4,2.6-8,4.1-.5.3-.8,1.5-.6,2.1.2.6,1.1,1.3,1.8,1.4.6.1,1.4-.4,2-.8,4.3-3.1,9.2-4,14.4-3.5,2.3.2,4.4,1.1,6.2,2.6-2.4.2-4.9,0-7.1.7-2.3.7-4.5,1.9-6.6,3.2-1,.6-1.1,1.8-.3,2.8.7,1,1.7,1.2,2.8.5.8-.5,1.7-1.1,2.5-1.6,2.9-1.6,5.9-1.9,9-.7.4.2,1,.9.9,1.3-.5,7.6-1.1,15.3-1.6,22.9-.6,9.2-1.1,18.5-1.7,27.7-.3,3.9-.6,7.9-1,11.8,0,.6-.5,1.2-1,1.7-.8.8-1.7,1.7-2.6,2.3-.5.4-1.3.7-1.9.6-3.5-.5-7-.7-10.4.6-6,2.2-9.9,6.6-12.1,12.4-2.6,6.6-2.8,13.4,1.2,19.6,1.5,2.3,1.9,4.1,1.1,6.6-.5,1.7-1.2,2.2-2.8,2.3-4.2.1-7.6,1.9-10.4,5-4.4,4.8-5.8,10.4-5,16.8,1.1,7.8,5.2,13.2,12.6,15.8,2.6.9,1.1,2.5,1.2,3.8.1,1.6-1.3,1-2.1,1.1-3.9.1-7.4,1.5-10.3,4.1-10.6,9.5-5.1,25.5,5.5,29.5,1.4.5,1.7,1.2,1.5,2.6-.2,1.5-1,1.8-2.3,1.6-.6,0-1.2,0-1.8,0-6.1.4-11,3-13.9,8.5-4.4,8.4-.5,18.5,8.6,22.3,1.8.8,1.3,1.7,1,2.9-.4,1.5-1.4.7-2.1.5-3.9-1-7.8-1.2-11.5.6-9.6,4.9-10.3,17.3-1.4,23.6,1.4,1,2.9,1.8,4.3,2.7-.5,1.2-1.3.9-2.1.4-3.9-2.2-8-3.2-12.5-2.9-5.1.3-10,4.4-10.5,9.3-.3,2.6.4,5.3.7,8.3-.8.1-2,.3-3.2.5-3.7.7-7.5,1.1-11,2.3-5.2,1.6-7.8,6-7.1,10.8.7,4.5,2.6,8.4,5.3,12,5,6.5,11.2,11.8,18,16.3,9.1,6.1,19,10.3,29.4,13.4,9.7,2.9,19.6,4.9,29.6,6.1,7.4.9,14.7,1.3,22,3.7,13.2,4.4,27,5.4,40.9,4.4,7.1-.5,13.5-3.1,18.9-7.8.9-.8,1.7-1.1,2.9-1.1,11.1.3,22.1-.5,32.8-3.7.7-.2,1.5-.2,2.3,0,5.6.7,11.2,1.6,16.8,2.1,9.6.9,19.1,1.6,28.7.3,5.6-.8,10.7-2.7,15-6.5,8.2-7.3,10.9-16.5,8.8-27-2-9.9-8-16.8-18.2-18.5h0ZM216.7,240.2c5,1.8,9.5,4.4,12.9,8.6,2.8,3.4,4.4,7.3,3.8,11.9-.8,6.4-6.9,10.1-12.2,10.3-5,.2-3.9.8-5.5-3.7-3.5-9.7-6.9-19.5-10.3-29.2,0-.3-.1-.6-.3-1.5,4.2,1.3,8,2.3,11.6,3.6h0ZM201.9,241.1c3.9,11.1,7.9,22.2,11.7,33.4,1.9,5.5,3.5,11.2,4.9,16.9,1,4.4,1.3,9,0,13.5-2,7-7.4,10.4-14,12.1-8.7,2.2-17.3,1.3-25.6-1.8-13.1-4.8-23.8-12.6-30.9-24.9-3.9-6.7-6-14.1-6.3-21.8-.2-6.3-.1-12.7.4-19,.6-7.3,2.5-14.3,5.2-21.1.6-1.4,1.4-1.7,2.8-1.5,7.5.8,15.1.8,22.6,0,7.7-.9,15.4-2.1,23.5-3.2,1.8,5.6,3.7,11.6,5.8,17.5h0ZM226,202.4c-7.1,7-15.6,11.4-25,14.5-10.2,3.3-20.6,5.4-31.3,5.7-7.6.2-15.2.4-22.8,0-9.6-.5-19-2.5-28.1-5.6-.6-.2-1.2-.5-1.9-.8,3.6-3.9,7.6-7.2,12-10,6.5-4.2,13.5-7.5,21.2-8.7,4.9-.8,9.9-.8,14.9-1.1,11.3-.7,22.7-1,34-2.1,11.5-1.2,22.9-3.3,34.3-4.9.4,0,.9-.2,1.5-.3-2.1,5.3-5.1,9.7-9,13.6h0ZM114.5,39.3c0-.8,1.3-1.5,2.1-2,1.2-.6,2.5-.4,3.3.7,2,2.5,3.9,5,5.7,7.4-4.1,1.5-8,3-12.1,4.5.3-3.4.4-7,.9-10.6h0ZM112.6,64.7c.2-2.4.4-4.8.7-7.2,0-.7.4-1.5.9-1.9,4-3.2,8.7-4.8,13.7-5.6.3,0,.9.1,1,.4,2.3,3.4,4.6,6.9,7.1,10.6-12.6,2.4-14.5,3.1-23.6,9.1,0-1.9.2-3.7.3-5.4ZM111.8,80.3c-.4-4.6,2.6-6.6,5.8-8.6,6.1-3.8,12.8-5.9,20-6.5.4,0,1,.2,1.1.5,2.6,4,5.1,8,7.8,12.2-12.9.4-24.7,3.3-35.2,11.6.2-3.3.6-6.3.4-9.2h0ZM112.3,94.8c7.6-6.9,16.7-10.3,26.7-11.7,2.8-.4,5.6-.5,8.4-.8,1.3-.2,2.2.3,2.9,1.5.6,1.1,1.3,2.2,2.1,3.5-14.8,1.1-28.6,4.8-41.6,12,.1-1.9.2-3.3,1.5-4.5ZM84.4,116.1c3.1-4.4,7.3-7.1,13-6.4-2.9,4.1-5.9,7.9-8.4,12.1-2.5,4.1-4.4,8.6-6.6,13-2.4-6.5-2.1-12.9,2-18.7h0ZM69.1,174.3c-3.6-5.2-3.7-13.4,0-18.3,2.1-2.9,4.8-4.8,8.5-4.9.2,0,.4,0,.7.1-.8,9.6-1.5,19.1-2.3,28.7-3-1.2-5.1-3.2-6.8-5.6h0ZM69.8,218c-3.3-1.6-5.3-4.4-6.4-7.8-1.8-5.7-.7-11.7,4.5-15,2-1.3,4.2-2,6.9-1.7-.5,4.3-1,8.5-1.6,12.7-.5,3.6-1.1,7.2-1.6,10.8-.2,1.4-.8,1.5-1.9,1h0ZM55.7,239.2c1.5-5,7.2-8.5,12.9-7.7-1.7,7.6-3.4,15-5.1,22.5-6.5-2.8-9.6-8.7-7.8-14.9ZM45.4,272.8c.2-4.3,4.1-8.2,8.4-8.2,1.6,0,3.3.2,4.9.4.4,0,1,1,.9,1.3-1.9,5.8-4,11.5-6,17.2,0,.2-.3.4-.5.6-5.4-2.5-7.9-6.3-7.7-11.4h0ZM38.5,289.8c3.3,0,6.3,1.3,9.2,3-4.1,4.8-9.2,7.4-14.9,8.8-.4,0-1.3-.5-1.5-.9-3-5.8.4-11,7.2-10.9h0ZM164.9,361.5c-4.2,3.8-9.2,5.8-14.8,6.4-1.9.2-3.8.3-5.6.5-10.7,0-18.7-6.7-21.3-17.7-3.2-13.7,4.5-26.4,18.6-30.2,9.6-2.6,18.2-.9,25.2,6.5,3.9,4.1,5.4,9.2,5.6,14.7.2,7.7-2,14.5-7.8,19.8h0ZM196.3,357.1c-7.4,1.6-14.8,1.8-22.6,1.6,2.8-4.7,4.1-9.5,4.2-14.5.2-10.5-3.6-19.1-12.9-24.6-7.2-4.3-15-5.5-23.2-3.3-1.8.5-3.3.2-5-.2-10.1-2.6-20.3-3.3-30.5-.5-1.2.3-2.4.9-3.6,1.3-1.3.5-2.1,1.3-1.4,2.8.6,1.5,1.8,1.6,3.2,1.2,2.4-.7,4.7-1.7,7.1-1.9,4.6-.4,9.3-.5,13.9-.6,2.4,0,4.7.4,7.7.7-8.9,5.2-14.7,12.1-15.5,22.2-.7,9.8,2.4,18.3,9.4,25.5-2.4-.4-4.9-.7-7.3-1.1-6.8-1.2-13.4-3.2-19.2-7.1-6.2-4.1-10.4-9.7-12.1-17-1.4-6-.2-11.7,4.2-16.4.8-.9,1.3-1.8.5-2.8-.8-1-2-1.4-3-.5-1.5,1.3-3,2.7-4,4.4-4,6.9-3.8,14-.9,21.2,1.5,3.8,3.9,7,6.8,9.8.8.8,1.7,1.6,2.3,2.7-2.4-.2-4.7-.4-7.1-.7-9.3-1.2-18.4-2.9-27.4-5.6-12.7-3.9-24.7-9.5-35.2-17.8-5.5-4.3-10.4-9.2-13.4-15.7-.5-1.2-1-2.4-1.2-3.7-.6-3,.6-5.6,3.6-6.3,4.1-1.1,8.4-1.8,12.6-2.5,5.1-.9,10.1-1.9,14.9-4,8.8-3.9,14.1-10.8,17.6-19.5,5.7-14.2,9.7-28.9,13.1-43.8,2.8-12.1,5.2-24.2,6.7-36.5.9-7.6,1.7-15.2,2.4-22.8,1.1-10.3,1.6-20.8,3.3-31,2.6-16.4,10-30.6,22.4-42,5.3-4.8,11.6-8,18.2-10.4,9.5-3.4,19.2-5.8,29.3-6.2,13-.4,25.1,2.9,36.8,8.3,16.9,7.8,28.1,21.1,36.1,37.5,4.7,9.6,8,19.6,9.3,30.1.6,4.9.2,10,0,15,0,.6-1,1.5-1.6,1.7-4.2,1-8.4,1.9-12.6,2.6-8.1,1.2-16.2,2.5-24.3,3.1-11.3.9-22.6,1.9-33.8,1.8-17.1-.3-31.7,5.7-44.7,16.2-2.4,2-4.5,4.5-6.5,6.9-1.7,2.1-1.3,3.8,1.3,4.7,4,1.6,8.2,2.9,12.4,3.9,4.7,1.1,9.6,1.7,14.4,2.6.6.1,1.3.3,1.9.4-1.1,3.9-2.4,7.6-3.3,11.4-2.6,11.4-3.5,22.9-2.1,34.5,2.2,17.2,11.1,30.1,25.2,39.6,8.3,5.5,17.3,9.3,27.3,10.2,9.1.8,17.9-.2,25.5-5.9,5.1-3.8,7.3-9.2,7.5-15.5,0-.8,0-1.6,0-2.4.2,0,.3,0,.5,0,.6,1.9,1.3,3.7,1.7,5.6,3.8,17.5-.3,32.9-13.1,45.5-4.4,4.3-10,6.4-16,7.8h0ZM212.8,355.7c13.2-10.6,18.9-24.5,19.4-40.8,8.1-.3,16.2-2,24.4-.6-14.9,11.9-18.5,26.3-10.4,43.7-10.9.2-22-.6-33.4-2.3h0ZM256.7,356.6c-1.2.4-2.4.6-3.6.6-.6,0-1.4-.3-1.8-.8-2.6-2.7-3.7-6.1-4.3-9.7-1.5-9.8,1.3-18.4,8.2-25.5,1.7-1.7,3.9-3,6-4.2.5-.3,1.6-.2,2.2,0,4.9,2.9,7.2,7.5,8.3,12.9.3,1.6.4,3.1.5,4.7-.2,10.6-6.1,18.9-15.5,21.8h0Z"/>
    <path class="cls-1" d="M140.3,377.9c-11.8,0-22.5-1.7-32.5-5-5.3-1.8-10.7-2.3-16.4-3-1.5-.2-3-.3-4.6-.5-10.5-1.3-20.8-3.4-30.4-6.3-11.9-3.6-21.9-8.1-30.7-14-7.9-5.3-14.2-11-19.1-17.4-3.4-4.4-5.5-9.2-6.3-14.2-1.2-7.4,3.1-14,10.5-16.3,2.9-.9,5.7-1.4,8.5-1.9.6,0,1.2-.2,1.7-.3-.2-1.5-.3-3,0-4.6.8-7.2,7.4-13.3,15.1-13.8.2,0,.5,0,.7,0-1-2.6-1.4-5.3-1.2-8.1.5-6.4,4.3-12.1,10.3-15.1,1.3-.7,2.7-1.2,4.2-1.5-1.5-1.8-2.6-3.9-3.4-6.1-2-5.5-1.6-11.4,1.2-16.6,2.7-5.1,6.8-8.5,12.2-10.2-3.6-3.4-6.2-8-7.2-13.1-1.4-7.7,1.1-15.2,7-20.5,1.9-1.7,4-3,6.2-3.9-5.1-3.7-8.3-9.3-9.3-16.4-1.1-8.1,1-15.2,6.2-20.9,3.4-3.7,7.6-5.9,12.2-6.4,0-.3-.3-.7-.7-1.3-4.6-7-5.1-15.4-1.6-24.2,2.9-7.4,8.1-12.6,15-15.2,4.2-1.6,8.4-1.4,11.8-1,.3-.3.7-.6,1-1,.4-4.1.7-7.5.9-10.6.3-4.4.5-8.8.8-13.1.3-4.8.6-9.7.9-14.5.2-3.7.5-7.3.8-11,.2-2.8.4-5.7.6-8.5-.8,0-1.5.3-2.3.8-.5.2-.9.6-1.4.9-.3.2-.6.4-.9.6-3.3,2.1-7.2,1.4-9.5-1.8-.8-1.1-1.3-2.3-1.4-3.5-1.3.6-2.6.8-3.9.6-2.5-.4-4.9-2.4-5.7-4.7-.9-2.6,0-6.4,2.8-8.1.4-.2.8-.5,1.2-.7.4-.2.8-.5,1.2-.7,0,0,0,0,0,0-4-.5-6.7-3.7-6.4-7.6.1-2,1-3.7,2.4-4.9,1.4-1.2,3.4-1.8,5.4-1.6,2.1.2,4.1.5,6.1.9,0-.2,0-.4.2-.6,1.1-3.5,4.3-5.3,8-4.6,1.1.2,2.6.5,4.1,1.3.6.3,1.2.6,1.8.9.2-2.2,1.5-4.1,3.6-5.4,3.4-2,7.2-1,9.4,2.3,3.1,4.7,4.9,10,5.3,15.6.2,2.8,0,5.5,0,8.1,0,0,0,0,0,0,2.7,1.7,4.4,4.4,5.8,6.5.2.3.4.7.7,1,5.8,8.7,11.6,17.5,17.3,26.1,1.6,2.5,3.3,5,4.9,7.5,2.3,3.6,4.7,7.3,7.1,11.2,22.5,2.1,40.5,9.6,55.2,22.8,11.8,10.6,20.5,24.3,26.6,41.7,3.8,10.7,5.5,21,5.3,31.3-.3,14.2-6.2,26.3-17.6,35.9-6.4,5.3-13.8,9.4-23.2,12.7.2.7.5,1.5.7,2.2,8.3,1.7,14.8,4.1,20.4,7.5,8.6,5.2,13.4,11.3,15.1,19.3,1.3,5.7,0,11.7-3.3,16.6-3.1,4.5-8,7.6-13.3,8.6.6,1.5,1.3,3.1,2,4.7,2.8,6.6,5.8,13.4,7.7,20.7,1.6-.1,3.3-.2,5-.2,1.4,0,2.8,0,4.2,0,4.6,0,9.3-.2,14.1.6l9.6,1.6-1.2,1.2c7.1,3.7,12,10.5,13.8,19.7,2.6,12.5-1,23.4-10.4,31.7-4.7,4.1-10.6,6.7-17.6,7.7-10.1,1.4-19.9.6-29.9-.3-3.7-.4-7.4-.9-10.9-1.3-2-.3-4-.5-6-.8-.2,0-.3,0-.4,0-9.7,2.9-20.5,4.1-33.9,3.9-6.2,5.3-13.5,8.2-21.7,8.9-3.5.3-7,.4-10.4.4ZM149.8,324.4c-2.1,0-4.3.3-6.7,1-11.5,3.1-17.7,13.1-15.1,24.2,2,8.7,7.9,13.7,16.2,13.8.5,0,1,0,1.4-.1,1.3,0,2.5-.2,3.7-.3,4.7-.6,8.6-2.2,11.6-4.8l.4-.3c4.4-4,6.4-9.3,6.2-16-.1-4.8-1.5-8.5-4.2-11.4-3.9-4.1-8.4-6.1-13.7-6.1ZM98.5,324.4c-.2,1.4-.8,2.9-2.2,4.3-3.1,3.2-4,7.1-3,11.8,1.3,5.7,4.6,10.3,10,13.9,3.5,2.4,7.7,4.1,12.7,5.4-2.7-5.7-3.9-12-3.4-18.8.5-6.7,2.8-12.5,7.2-17.5-2.6,0-5.2.2-7.8.4-1.2.1-2.6.6-4.1,1.1-.7.2-1.4.4-2,.6-2.8.8-5.4.3-7.3-1.3ZM15,315.1c0,.1,0,.3,0,.5.2.8.5,1.7.9,2.6,2.3,4.8,6,9.1,12,13.9,9.2,7.3,20.1,12.8,33.5,17,6.4,2,13.3,3.5,21.4,4.7-.8-1.4-1.5-2.8-2.1-4.2-3.8-9.2-3.4-17.8,1.2-25.6,1.3-2.2,3.2-4,4.9-5.6,1.4-1.3,3.2-1.9,5.1-1.7,1.5.1,2.9.7,4,1.7,0-.8.3-1.5.5-2.1.5-1.3,1.7-3,4.4-4,.3-.1.6-.2,1-.4.9-.4,1.9-.8,3.1-1.1,10.1-2.8,20.9-2.6,33,.4,1.3.3,1.9.4,2.5.2,4.1-1.1,8.2-1.4,12.2-1.1-11.3-9.9-18-22.4-19.9-37.3-1.5-11.6-.8-23.5,2.1-36.2.5-2.2,1.1-4.3,1.7-6.3-.2,0-.4,0-.7-.1-3.4-.5-6.9-1.1-10.3-1.9-4-.9-8.2-2.3-13-4.1-3.5-1.3-4.8-3.6-5.2-5.2-.5-1.7-.5-4.3,1.8-7.2,2.1-2.6,4.4-5.4,7.3-7.7,14.8-12,30.5-17.6,48-17.4,10.1.2,20.6-.7,30.7-1.5l2.7-.2c7.2-.6,14.5-1.7,21.6-2.7l2.4-.3c3.3-.5,6.6-1.2,10-2,0-.3,0-.6,0-1,.1-3.8.3-7.3-.1-10.7-1.2-9.5-4.1-18.8-8.8-28.6-8.3-17-19.3-28.5-33.7-35.2-12.2-5.7-23.5-8.2-34.5-7.9-8.6.3-17.7,2.2-27.8,5.9-7.1,2.6-12.4,5.6-16.6,9.4-11.4,10.4-18.4,23.6-20.9,39.1-1.1,6.8-1.7,13.9-2.3,20.7-.3,3.3-.6,6.7-.9,10l-.5,4.7c-.6,5.9-1.2,12.1-2,18.2-1.4,11.1-3.6,22.9-6.8,37-2.9,12.5-7,28.8-13.3,44.5-4.4,10.9-11,18.1-20.2,22.2-5.4,2.4-11,3.4-16,4.3-.9.2-1.7.3-2.6.5-3.3.6-6.5,1.2-9.6,2,0,0,0,0,0,0ZM177.6,324.6c3.6,5.4,5.4,12,5.3,19.7,0,3.3-.6,6.4-1.5,9.4,4.9-.1,9.4-.5,13.8-1.5h0c6.2-1.4,10.5-3.4,13.6-6.4,8.4-8.2,12.7-17.6,13-28.3-.9,1-1.9,1.9-3,2.7-10,7.5-21.3,7.5-29,6.9-4.1-.3-8.2-1.1-12.2-2.4ZM223.8,352c5.2.5,10.2.8,15.1.9-3.9-12.7-2-24.1,5.9-34.1-1.5.1-3.1.2-4.7.4-1,0-2.1.2-3.2.3-1.2,12.9-5.5,23.6-13.1,32.5ZM252.9,352.2s0,0,0,0c0,0,0,0,0,0ZM262.2,322.3c-1.3.8-2.5,1.6-3.3,2.4-5.9,6-8.1,13-6.9,21.3.4,2.6,1.1,4.6,2.2,6.1.2,0,.5,0,.7-.2h.4c7.3-2.4,11.8-8.6,12-17,0-.4,0-.9-.1-1.3,0-1-.2-1.9-.3-2.7-.8-4.1-2.2-6.8-4.6-8.7ZM263.9,321.3h0s0,0,0,0ZM151.2,232c-2.4,6.3-3.8,12.2-4.2,17.9-.5,6-.6,12.2-.4,18.4.3,6.9,2.1,13.4,5.6,19.5,6,10.4,15.3,17.9,28.4,22.7,7.8,2.9,15.4,3.4,22.7,1.6,5.9-1.5,9.1-4.2,10.4-8.7.9-3.2.9-6.7,0-10.9-1.2-5.2-2.8-10.6-4.7-16.4-.6-1.9-1.3-3.8-1.9-5.7v.4l-9.7-28c-1.4-4.2-2.8-8.3-4.1-12.3-.1-.4-.3-.8-.4-1.2-1.1.2-2.2.3-3.3.5-5.5.8-10.8,1.5-16.2,2.1-7.1.8-14.5.9-22,.2ZM35.7,298.4h0s0,0,0,0ZM37,294.9c-.6.1-1,.3-1.3.6.5-.2.9-.4,1.3-.6ZM50.4,272.9h0c0,1.1,0,2.1.5,3.1.8-2.2,1.5-4.2,2.2-6.3-1.3.4-2.6,1.8-2.7,3.2ZM212.8,244.1h0c2.5,7.1,5,14.4,7.5,21.5,0,.1,0,.3.1.4.1,0,.3,0,.4,0,2.8-.1,6.9-2,7.4-5.9.4-2.9-.5-5.4-2.7-8.1-2.5-3-6-5.3-10.8-7.1l-1-.4c-.4-.1-.8-.3-1.2-.4ZM60.5,240.6c-.4,1.4-.4,2.8,0,4.1l1.4-6.3c-.7.6-1.2,1.4-1.4,2.3ZM207.9,229.4h0s0,0,0,0ZM206.1,227.5s0,0,0,0c0,0,0,0,0,0ZM126.6,214c6.9,1.9,13.9,3.1,20.7,3.5,7.5.4,15.1.3,22.3,0,8.8-.2,17.8-1.8,27.3-4.6v-1.5l.5,1.3c.7-.2,1.4-.4,2.1-.7,9.5-3.1,17-7.4,23-13.3l.5-.5c.9-.9,1.8-1.9,2.6-2.9-.5,0-1.1.2-1.6.3-7.9,1.2-16.1,2.5-24.2,3.4-7.8.8-15.8,1.2-23.5,1.6-3.6.2-7.1.4-10.7.6-1.5,0-2.9.1-4.4.2-3.5.1-6.8.3-10.1.8-6.2,1-12.3,3.5-19.3,8-1.8,1.2-3.6,2.4-5.2,3.7ZM68.9,201c-1.7,2.2-1.4,5.2-.9,7,.1-.8.2-1.6.3-2.4.2-1.5.4-3.1.6-4.6ZM70.5,188.2s0,0,0,0c0,0,0,0,0,0ZM231.7,182.3s0,0,0,0c0,0,0,0,0,0ZM72.5,159.9c-1.2,2.4-1.4,5.6-.7,8.4l.7-8.4ZM100.7,100.1s0,0,0,0c0,0,0,0,0,0ZM100.6,99.9s0,0,0,0c0,0,0,0,0,0ZM116.8,79.6v.4s0,0,0,.1c6.2-3.3,13.2-5.5,21.1-6.5-.7-1-1.3-2.1-2-3.1-5.6.7-10.9,2.6-15.7,5.5-3,1.8-3.5,2.5-3.4,3.6ZM138,70.3s0,0,0,0c0,0,0,0,0,0ZM134.6,68.5s0,0,0,0c0,0,0,0,0,0ZM118.2,58.8c0,.7-.1,1.4-.2,2.1,2.9-1.5,5.7-2.4,9.7-3.3-.5-.7-1-1.5-1.5-2.2-3.2.7-5.8,1.8-8.1,3.4ZM124.8,53.2s0,0,0,0c0,0,0,0,0,0ZM107.2,41.5s0,0,0,0c0,0,0,0,0,0Z"/>
  </g>
  <path class="cls-3" d="M88.9,121.8c2.5-4.2,5.6-8.1,8.4-12.1-5.7-.7-9.9,2-13,6.4-4.2,5.8-4.5,12.2-2,18.7,2.2-4.4,4.1-8.8,6.6-13h0Z"/>
  <path class="cls-3" d="M146.6,77.9c-2.7-4.2-5.2-8.2-7.8-12.2-.2-.3-.8-.5-1.1-.5-7.2.5-13.9,2.7-20,6.5-3.2,2-6.1,4-5.8,8.6.2,2.9-.2,5.9-.4,9.2,10.4-8.3,22.3-11.2,35.2-11.6h0Z"/>
  <path class="cls-3" d="M150.3,83.8c-.6-1.2-1.5-1.6-2.9-1.5-2.8.3-5.6.4-8.4.8-10,1.4-19.1,4.8-26.7,11.7-1.3,1.2-1.4,2.7-1.5,4.5,13.1-7.2,26.8-10.9,41.6-12-.8-1.3-1.6-2.3-2.1-3.5Z"/>
  <path class="cls-3" d="M53.5,283.6c2-5.7,4-11.5,6-17.2.1-.3-.5-1.2-.9-1.3-1.6-.3-3.2-.4-4.9-.4-4.3,0-8.2,3.9-8.4,8.2-.2,5.2,2.3,8.9,7.7,11.4.2-.3.4-.4.5-.6h0Z"/>
  <path class="cls-3" d="M68.7,231.5c-5.7-.9-11.5,2.7-12.9,7.7-1.8,6.1,1.2,12.1,7.8,14.9,1.7-7.5,3.4-15,5.1-22.5Z"/>
  <path class="cls-3" d="M71.6,217c.5-3.6,1.1-7.2,1.6-10.8.6-4.2,1.1-8.4,1.6-12.7-2.7-.3-4.9.4-6.9,1.7-5.2,3.3-6.3,9.2-4.5,15,1.1,3.4,3.1,6.2,6.4,7.8,1.1.5,1.7.5,1.9-1h0Z"/>
  <path class="cls-3" d="M78.2,151.2c-.2,0-.4-.1-.7-.1-3.7.1-6.4,2.1-8.5,4.9-3.6,4.9-3.5,13.1,0,18.3,1.7,2.4,3.8,4.4,6.8,5.6.8-9.7,1.5-19.2,2.3-28.7h0Z"/>
  <path class="cls-3" d="M215.7,267.3c1.6,4.5.5,3.9,5.5,3.7,5.2-.2,11.4-3.9,12.2-10.3.6-4.6-1-8.4-3.8-11.9-3.4-4.2-7.9-6.8-12.9-8.6-3.7-1.3-7.4-2.3-11.6-3.6.2.9.2,1.2.3,1.5,3.4,9.7,6.8,19.5,10.3,29.2h0Z"/>
  <path class="cls-3" d="M172.6,226.8c-7.5.9-15,.8-22.6,0-1.4-.2-2.3.2-2.8,1.5-2.7,6.8-4.7,13.8-5.2,21.1-.5,6.3-.6,12.7-.4,19,.3,7.7,2.4,15,6.3,21.8,7.1,12.3,17.9,20.1,30.9,24.9,8.3,3.1,17,4,25.6,1.8,6.6-1.7,11.9-5.1,14-12.1,1.3-4.4,1-9.1,0-13.5-1.3-5.7-3-11.3-4.9-16.9-3.8-11.2-7.8-22.2-11.7-33.4-2.1-5.9-3.9-11.9-5.8-17.5-8,1.1-15.7,2.3-23.5,3.2h0Z"/>
  <path class="cls-3" d="M199.1,194.1c-11.3,1.2-22.7,1.5-34,2.1-5,.3-10,.3-14.9,1.1-7.7,1.2-14.7,4.5-21.2,8.7-4.4,2.8-8.4,6.1-12,10,.7.3,1.3.6,1.9.8,9.1,3.1,18.5,5,28.1,5.6,7.6.4,15.2.3,22.8,0,10.7-.3,21.1-2.4,31.3-5.7,9.3-3,17.9-7.5,25-14.5,3.9-3.8,6.9-8.3,9-13.6-.7.2-1.1.3-1.5.3-11.4,1.7-22.8,3.8-34.3,4.9h0Z"/>
  <path class="cls-3" d="M128.9,50.4c-.2-.3-.7-.5-1-.4-5,.7-9.7,2.4-13.7,5.6-.5.4-.8,1.2-.9,1.9-.3,2.4-.5,4.8-.7,7.2-.1,1.8-.2,3.5-.3,5.4,9.1-6,11.1-6.8,23.6-9.1-2.4-3.7-4.7-7.2-7.1-10.6Z"/>
  <path class="cls-3" d="M120,38c-.9-1.1-2.2-1.3-3.3-.7-.9.4-2,1.2-2.1,2-.5,3.6-.6,7.2-.9,10.6,4.1-1.5,8-3,12.1-4.5-1.9-2.4-3.8-4.9-5.7-7.4h0Z"/>
  <path class="cls-3" d="M256.6,314.3c-8.2-1.4-16.2.3-24.4.6-.6,16.4-6.2,30.2-19.4,40.8,11.4,1.7,22.5,2.5,33.4,2.3-8.1-17.4-4.5-31.9,10.4-43.7Z"/>
  <path class="cls-3" d="M225.4,303.8c-.4-1.9-1.1-3.7-1.7-5.6-.2,0-.3,0-.5,0,0,.8,0,1.6,0,2.4-.2,6.3-2.4,11.6-7.5,15.5-7.6,5.7-16.4,6.7-25.5,5.9-10-.8-19-4.6-27.3-10.2-14.2-9.5-23.1-22.4-25.2-39.6-1.5-11.6-.5-23.1,2.1-34.5.9-3.8,2.2-7.5,3.3-11.4-.6-.1-1.3-.3-1.9-.4-4.8-.8-9.6-1.4-14.4-2.6-4.2-1-8.3-2.4-12.4-3.9-2.6-1-2.9-2.6-1.3-4.7,1.9-2.5,4-5,6.5-6.9,13-10.5,27.6-16.5,44.7-16.2,11.3.2,22.6-.8,33.8-1.8,8.1-.7,16.2-1.9,24.3-3.1,4.2-.6,8.4-1.6,12.6-2.6.7-.2,1.6-1.1,1.6-1.7.1-5,.5-10,0-15-1.3-10.5-4.6-20.6-9.3-30.1-8-16.4-19.3-29.7-36.1-37.5-11.7-5.4-23.8-8.8-36.8-8.3-10.1.3-19.8,2.7-29.3,6.2-6.7,2.4-13,5.6-18.2,10.4-12.4,11.3-19.8,25.5-22.4,42-1.6,10.2-2.2,20.7-3.3,31-.8,7.6-1.5,15.2-2.4,22.8-1.5,12.3-3.9,24.4-6.7,36.5-3.4,14.9-7.4,29.6-13.1,43.8-3.5,8.7-8.8,15.6-17.6,19.5-4.8,2.1-9.8,3.1-14.9,4-4.2.8-8.4,1.5-12.6,2.5-3,.8-4.2,3.3-3.6,6.3.3,1.3.7,2.5,1.2,3.7,3,6.4,8,11.3,13.4,15.7,10.5,8.3,22.4,13.9,35.2,17.8,8.9,2.7,18.1,4.4,27.4,5.6,2.4.3,4.7.5,7.1.7-.7-1.1-1.5-1.9-2.3-2.7-2.9-2.8-5.2-6.1-6.8-9.8-2.9-7.2-3.1-14.3.9-21.2,1-1.7,2.5-3.1,4-4.4,1-.9,2.2-.5,3,.5.8,1,.4,1.9-.5,2.8-4.4,4.7-5.6,10.4-4.2,16.4,1.6,7.2,5.9,12.9,12.1,17,5.8,3.9,12.4,5.9,19.2,7.1,2.4.4,4.9.7,7.3,1.1-7-7.2-10.2-15.7-9.4-25.5.7-10.2,6.6-17,15.5-22.2-2.9-.3-5.3-.7-7.7-.7-4.6,0-9.3.1-13.9.6-2.4.2-4.8,1.2-7.1,1.9-1.4.4-2.6.2-3.2-1.2-.7-1.5,0-2.3,1.4-2.8,1.2-.5,2.4-1,3.6-1.3,10.2-2.8,20.4-2.1,30.5.5,1.7.4,3.2.7,5,.2,8.2-2.1,16-1,23.2,3.3,9.3,5.5,13.1,14.1,12.9,24.6-.1,5-1.3,9.9-4.2,14.5,7.8.1,15.2,0,22.6-1.6,6-1.3,11.6-3.5,16-7.8,12.9-12.7,17-28,13.1-45.5h0ZM137.1,132.7c5,0,8.6,3.9,8.6,9.4,0,5-3.8,9.4-8.1,9.4-5.5,0-9.4-4-9.4-9.7,0-5.1,4-9.2,8.9-9.2h0ZM120.9,156.5c1.8-.2,3.8,0,5.5.6,4.3,1.5,5.7,6.6,3,10.3-3.1,4.2-9.5,5.4-13.5,2.4-1.8-1.3-2.6-3.1-2.6-6.3,0-2.8,3.6-6.8,7.6-7.1h0ZM114,285.3c-8.4,1.5-15.9-.4-22-6.6-4.1-4.2-6.2-9.2-5.9-14.7,0-5,.8-9.2,3.7-12.9.7-.9,1.5-1.9,2.8-1,1.3.9,1.2,2,.5,3.3-3.1,5.6-3.5,11.5-1,17.3,3.3,7.5,11,11.2,18.9,10.4,3.2-.3,6-1.5,8.6-3.4,7.7-5.9,6.9-16.5,1.3-22.7-5.2-5.8-11.9-8.7-19.5-9.5-1.3-.2-2.5-.5-2.5-2.1,0-1.3,1.1-2.2,2.7-2.1,9.6.6,17.4,4.7,23.5,11.9,3,3.5,4.6,7.8,4.7,12.5.3,10.1-5.9,17.9-15.8,19.7h0Z"/>
  <path class="cls-3" d="M263.4,317.1c-.6-.3-1.7-.4-2.2,0-2.1,1.3-4.3,2.5-6,4.2-6.9,7.1-9.7,15.7-8.2,25.5.5,3.6,1.6,7,4.3,9.7.4.4,1.2.8,1.8.8,1.2,0,2.5-.3,3.6-.6,9.5-2.9,15.4-11.3,15.5-21.8-.2-1.6-.2-3.2-.5-4.7-1.1-5.4-3.4-10-8.3-12.9h0Z"/>
  <path class="cls-3" d="M119.1,167.6c1.9.5,3.8.4,5.6-.6,2-1.1,2.9-2.7,2.4-4.5-.4-1.8-1.8-2.6-4.4-2.6-1.8-.2-3.5.6-4.9,1.9-2,1.9-1.3,5.1,1.2,5.8h0Z"/>
  <path class="cls-3" d="M138.8,142.4c1.5,0,2.5-1.1,2.5-2.6,0-1.5-1.2-2.6-2.8-2.6-1.5,0-2.5,1.1-2.5,2.6,0,1.4,1.3,2.6,2.8,2.6Z"/>
  <path class="cls-3" d="M167.1,327c-7-7.4-15.7-9.1-25.2-6.5-14.1,3.8-21.8,16.4-18.6,30.2,2.6,11,10.6,17.6,21.3,17.7,1.9-.2,3.8-.2,5.6-.5,5.6-.7,10.6-2.6,14.8-6.4,5.8-5.3,8.1-12.1,7.8-19.8-.2-5.5-1.7-10.6-5.6-14.7h0Z"/>
  <path class="cls-3" d="M32.8,301.6c5.8-1.4,10.9-4,14.9-8.8-2.9-1.8-5.9-3-9.2-3-6.8,0-10.2,5.1-7.2,10.9.2.5,1.1,1,1.5.9h0Z"/>
  <path class="cls-2" d="M101.6,241.3c-1.7,0-2.8.8-2.7,2.1,0,1.6,1.2,1.9,2.5,2.1,7.6.9,14.3,3.8,19.5,9.5,5.6,6.1,6.4,16.8-1.3,22.7-2.5,1.9-5.4,3-8.6,3.4-8,.8-15.7-2.9-18.9-10.4-2.5-5.8-2.1-11.7,1-17.3.7-1.2.8-2.4-.5-3.3-1.3-.9-2.1,0-2.8,1-2.9,3.6-3.8,7.9-3.7,12.9-.3,5.5,1.8,10.5,5.9,14.7,6.1,6.2,13.7,8.1,22,6.6,10-1.8,16.1-9.6,15.8-19.7-.1-4.7-1.7-8.9-4.7-12.5-6.2-7.2-14-11.3-23.5-11.9h0Z"/>
  <path class="cls-2" d="M137.6,151.6c4.4,0,8.1-4.4,8.1-9.4,0-5.5-3.6-9.4-8.6-9.4-5,0-8.9,4.1-8.9,9.2s3.9,9.7,9.4,9.7h0ZM138.6,137.2c1.6,0,2.8,1.1,2.8,2.6,0,1.5-1,2.6-2.5,2.6-1.5,0-2.8-1.1-2.8-2.6,0-1.5,1.1-2.6,2.5-2.6Z"/>
  <path class="cls-2" d="M115.9,169.8c4,2.9,10.4,1.8,13.5-2.4,2.7-3.7,1.3-8.8-3-10.3-1.7-.6-3.7-.8-5.5-.6-4,.3-7.6,4.3-7.6,7.1,0,3.2.8,4.9,2.6,6.3h0ZM117.9,161.8c1.4-1.3,3.1-2.1,4.9-1.9,2.6,0,4,.8,4.4,2.6.4,1.9-.4,3.5-2.4,4.5-1.8,1-3.7,1.1-5.6.6-2.5-.7-3.2-3.9-1.2-5.8h0Z"/>
</svg>