<?xml version="1.0" encoding="UTF-8"?>
<svg id="Capa_4" data-name="Capa 4" xmlns="http://www.w3.org/2000/svg" viewBox="0 0 2867.65 1080">
  <defs>
    <style>
      .cls-1 {
        fill: currentColor;
        stroke-width: 0px;
      }
    </style>
  </defs>
  <path class="cls-1" d="M1444.46,757.63h-561.2V0h561.2v153.4h-385.36v136.56h351.69v149.66h-351.69v164.62h385.36v153.4Z"/>
  <path class="cls-1" d="M1487.47,757.63V0h396.59c46.14,0,86.52,8.11,121.13,24.32,34.61,16.22,61.73,38.82,81.37,67.81,19.64,29,29.46,62.52,29.46,100.55s-9.05,67.5-27.12,94c-18.09,26.51-43.96,46.93-77.63,61.26v3.74c29.93,8.74,55.49,22.3,76.7,40.69,21.19,18.4,37.41,40.07,48.64,65.01,11.22,24.95,16.84,52.7,16.84,83.25,0,43.03-10.61,80.76-31.8,113.18-21.21,32.43-50.67,57.84-88.39,76.23-37.73,18.4-81.84,27.59-132.35,27.59h-413.42ZM1663.32,295.57h195.49c26.8,0,47.07-6.08,60.8-18.24,13.71-12.16,20.58-29.77,20.58-52.85s-6.87-41.46-20.58-53.31c-13.72-11.84-33.99-17.77-60.8-17.77h-195.49v142.17ZM1663.32,604.23h207.65c34.91,0,61.41-7.48,79.5-22.45,18.08-14.97,27.13-36.16,27.13-63.6s-9.05-48.32-27.13-62.67c-18.09-14.34-44.28-21.51-78.57-21.51h-208.58v170.23Z"/>
  <path class="cls-1" d="M2519.15,768.85c-67.97,0-127.67-10.45-179.12-31.34-51.44-20.88-91.36-53.15-119.73-96.81-28.38-43.64-42.56-100.08-42.56-169.3V0h179.59v443.35c0,49.89,13.09,89.18,39.28,117.85,26.19,28.69,68.59,43.03,127.21,43.03s103.35-15.27,128.61-45.83c25.25-30.55,37.88-68.59,37.88-114.11V0h175.85v473.28c0,99.15-30.87,173.2-92.6,222.14-61.73,48.96-146.54,73.43-254.41,73.43Z"/>
  <polygon class="cls-1" points="643.82 0 643.82 509.76 640.08 509.76 261.26 0 82.61 0 82.61 589.63 0 589.63 0 758 168.36 758 168.36 757.63 168.36 674.94 250.97 674.94 250.97 261.9 254.72 261.9 626.05 757.63 812.18 757.63 812.18 0 643.82 0"/>
  <path class="cls-1" d="M1626.65,1024.89c-11.93,0-22.16-2.22-30.7-6.65-8.54-4.43-15.23-10.84-20.06-19.22h-10.15v22.96h-34.33v-33.12h16.68v-169.93h32.87v79.77h.97c4.35-7.89,10.59-13.98,18.73-18.25,8.14-4.27,17.68-6.41,28.65-6.41,13.86,0,25.74,3.06,35.65,9.19,9.91,6.13,17.48,14.87,22.72,26.23,5.23,11.36,7.86,24.7,7.86,40.01s-2.7,28.61-8.1,39.88c-5.4,11.28-13.22,20.03-23.45,26.23-10.24,6.21-22.68,9.31-37.35,9.31ZM1620.85,996.6c13.53,0,23.89-4.19,31.06-12.57,7.17-8.38,10.75-19.9,10.75-34.57s-3.59-26.18-10.75-34.57c-7.17-8.38-17.53-12.57-31.06-12.57-12.09,0-21.76,3.47-29.01,10.39-7.25,6.93-10.88,16.28-10.88,28.04v17.4c0,11.77,3.63,21.11,10.88,28.04,7.25,6.93,16.92,10.39,29.01,10.39Z"/>
  <path class="cls-1" d="M1719.23,1080v-26.35h33.6l13.3-31.91-63.82-144.79h34.33l45.69,106.36h1.21l43.99-106.36h32.87l-61.88,145.03-13.29,31.42c-3.55,8.38-7.37,14.9-11.48,19.58-4.11,4.67-10.84,7.01-20.18,7.01h-34.33Z"/>
  <path class="cls-1" d="M2277.85,1021.99h-33.6v-195.8h136.82v29.01h-103.22v53.66h96.2v29.01h-96.2v84.12Z"/>
  <path class="cls-1" d="M2405,1021.99v-203.05h32.87v203.05h-32.87Z"/>
  <path class="cls-1" d="M2542.78,1024.89c-15.31,0-28.64-3.1-40.01-9.31-11.36-6.2-20.18-14.95-26.47-26.23-6.29-11.28-9.43-24.57-9.43-39.88s3.1-28.6,9.31-39.88c6.2-11.28,15.03-20.02,26.47-26.23,11.44-6.2,24.9-9.31,40.37-9.31s29.09,3.06,40.37,9.19c11.28,6.13,19.98,14.83,26.1,26.1,6.12,11.28,9.19,24.66,9.19,40.13s-3.11,28.65-9.31,40.01c-6.2,11.36-14.95,20.1-26.23,26.23-11.28,6.13-24.74,9.19-40.37,9.19ZM2542.78,996.36c13.69,0,24.29-4.19,31.79-12.57,7.49-8.38,11.24-19.9,11.24-34.57s-3.75-26.11-11.24-34.33c-7.49-8.22-18.09-12.33-31.79-12.33s-24.09,4.15-31.67,12.45c-7.58,8.3-11.36,19.7-11.36,34.2s3.78,26.19,11.36,34.57c7.57,8.38,18.13,12.57,31.67,12.57Z"/>
  <path class="cls-1" d="M2674.52,1021.99l-46.41-145.03h33.84l31.67,104.67h1.21l36.98-104.67h32.39l37.23,104.67h1.21l31.67-104.67h33.36l-46.17,145.03h-35.77l-37.47-103.46h-.97l-36.98,103.46h-35.77Z"/>
  <g>
    <path class="cls-1" d="M2147.55,928.93c-.2-1.15-.41-2.34-.67-3.61-.07-.37-.15-.7-.22-1.08-7.21-35-34.27-106.34-34.27-106.34l-53.14,54.35-6.17,6.32-6.43-6.32-55.11-54.35c-31.07,88.54-33.14,112.14-33.14,112.14h.02c-.83,5.32-1.22,11.2-1.22,17.53,0,11.53,1.32,21.39,4,29.62,2.67,8.23,6.17,15.13,10.55,20.69,4.36,5.54,9.36,9.99,14.98,13.29,5.62,3.3,11.4,5.84,17.29,7.6,5.91,1.76,11.73,2.87,17.42,3.37,5.69.48,10.79.74,15.29.74h32.7c4.49,0,9.6-.24,15.29-.74,5.71-.48,11.51-1.61,17.42-3.37,5.91-1.76,11.68-4.3,17.29-7.6,5.63-3.3,10.62-7.75,15-13.29,4.36-5.56,7.86-12.46,10.53-20.69,2.69-8.23,4.02-18.09,4.02-29.62,0-6.82-.48-12.99-1.41-18.63l-.02-.02ZM2120.69,967.24c-1.95,6.06-4.54,11.12-7.75,15.22-3.23,4.08-6.9,7.36-11.05,9.79-4.13,2.41-8.38,4.28-12.73,5.56-4.36,1.3-8.62,2.13-12.83,2.48-4.17.37-7.93.54-11.25.54h-24.06c-3.32,0-7.06-.17-11.25-.54-4.17-.37-8.47-1.2-12.83-2.48-4.32-1.3-8.58-3.15-12.73-5.56-4.13-2.45-7.82-5.71-11.01-9.79-3.23-4.1-5.82-9.16-7.77-15.22-1.98-6.06-2.95-13.33-2.95-21.82,0-4.67.3-8.99.91-12.92.17-1.02,5.63-32.73,24.37-65.41l40.57,39.98,4.71,4.67,4.54-4.67,39.13-39.98s19.91,35.38,25.23,61.17c.07.26.13.52.17.78.17.95.33,1.84.48,2.67.69,4.15,1.06,8.71,1.06,13.73,0,8.47-1,15.76-2.98,21.82l.02-.02Z"/>
    <polygon class="cls-1" points="2039.36 958.01 2066.81 958.01 2053.08 974.43 2039.36 958.01"/>
  </g>
</svg>