<?xml version="1.0" encoding="UTF-8"?>
<svg id="Capa_1" data-name="Capa 1" xmlns="http://www.w3.org/2000/svg" viewBox="0 0 200.78 73.37">
  <defs>
    <style>
      .cls-1 {
        fill: #000;
      }

      .cls-1, .cls-2 {
        stroke-width: 0px;
      }

      .cls-2 {
        fill: #fff;
      }
    </style>
  </defs>
  <path class="cls-1" d="M200.78,59.73l-.6-2.98c-1.34-6.64-1.27-13.24-1.18-20.23.01-1.18.03-2.36.03-3.54l.02-3.7-10.61,2.17c0-.44,0-.88,0-1.32,0-2.73-.02-5.47.02-8.2.04-3.69-.78-7.1-2.46-10.13C181.79,4.15,174.99.09,166.34.05c-12.07-.06-24.35-.05-36.22-.04-4.98,0-9.96.01-14.94.01H33.57C21.96.02,12.57,8.65,11.73,20.08c-.25,3.34-.21,6.69-.17,9.94,0,.66.02,1.31.02,1.97l-6.53-1.87H1.89l-.28,3.04c-.04.36-.07.67-.07.94-.02,1.11-.03,2.21-.05,3.32-.01,1.1-.03,2.2-.04,3.29-.01.63-.01,1.25-.01,1.88,0,1.42,0,2.76-.13,4.05-.26,2.66-.65,5.39-1.03,8.03l-.23,1.61c-.31,2.23.91,3.95,3.12,4.37,1.39.26,2.78.54,4.16.83,1.32.27,2.64.54,3.96.79.01.25.02.51,0,.75-.09,1.45.47,2.39.95,2.91.71.77,1.69,1.18,2.93,1.21,1.03.02,2.1.09,3.15.19,4.32,4,9.66,6.03,15.87,6.03,43.72-.03,88.06-.03,131.78,0,6.06,0,11.35-2.02,15.75-6.01,1.15-.13,2.33-.2,3.57-.28.58-.04,1.17-.07,1.77-.12l2.79-.2v-3.81c0-.41,0-.8,0-1.18,1.67-.33,3.36-.64,5.1-.96l5.82-1.09Z"/>
  <path class="cls-2" d="M194.22,35.13c0,3.61-.11,7.04.03,10.46.14,3.41.52,6.82.82,10.35-1.83.35-3.7.71-5.56,1.07-1.2.23-2.41.46-3.62.65-.57.09-.8.33-.78.93.04.94-.03,1.88.02,2.82.04.68-.16.96-.89,1-6.92.42-13.84.88-20.76,1.33-5.23.34-10.45.8-15.68,1-6.57.25-13.14.31-19.71.42-8.48.14-16.97.35-25.46.32-13.5-.05-27.02-.03-40.52-.48-13.39-.45-26.75-1.46-40.13-2.23-1.94-.11-3.87-.25-6.03-.39,0-1.02-.07-1.99.02-2.94.08-.87-.23-1.2-1.07-1.35-3.05-.55-6.1-1.17-9.13-1.78-.27-.05-.54-.16-.95-.28,1.27-6.76,1.54-13.56,1.41-20.58,2.57.71,4.94,1.38,7.53,2.1,0,1.21.05,2.49-.02,3.78-.04.8.25,1.02,1.05,1.07,14.6.72,29.21,1.52,43.81,2.2,4.8.23,9.6.21,14.41.28,8.91.14,17.84.35,26.75.36,10.25,0,20.51-.03,30.76-.29,10.36-.26,20.71-.78,31.06-1.26,7.69-.36,15.36-.87,23.04-1.28.69-.04.84-.32.87-.91.06-1.3.14-2.6.29-3.88.04-.31.34-.76.6-.82,2.57-.58,5.15-1.09,7.83-1.64h0ZM76.24,50.09v9.36h1.68v-3.19c1.26-.16,2.27-.08,2.84,1.14.2.42.59.75.78,1.17.54,1.17,1.48,1.14,2.67.94-.82-1.21-1.57-2.32-2.35-3.45.21-.14.32-.23.43-.3,1.33-.72,1.87-1.76,1.68-3.17-.18-1.36-.98-2.31-2.49-2.45-1.71-.15-3.44-.04-5.25-.04h0ZM145.66,49.53c0,3.03,0,5.94.03,8.85,0,.21.35.58.54.58,1.36-.02,2.75,0,4.09-.21,2.29-.36,3.78-2.17,3.86-4.41.07-2.44-1.26-4.37-3.67-4.76-1.61-.26-3.29-.05-4.84-.05h0ZM70.13,59.35c.03-.46.05-.9.09-1.52h-3.34c-1.55,0-2.22-.77-2.01-2.3.31-2.3.04-.06.08-.14h3.3c1.44,0,1.48-.05,1.14-1.6h-4.49v-2.43h5.29v-1.49h-6.92c-.05.14-.11.24-.11.34-.05,2.82-.13,5.63-.13,8.44,0,.23.52.64.81.65,2.02.05,4.04.03,6.28.03v.02ZM134.16,51.21c1.59,0,3.06.03,4.53-.03.26,0,.73-.41.72-.61,0-.33-.33-.9-.54-.91-2.15-.06-4.3-.05-6.35-.05v9.56h7.08v-1.51h-5.33v-2.45c1.14,0,2.29.02,3.42,0,1.33-.03,1.38-.14,1.07-1.53h-4.61v-2.5h0ZM57.31,51.04c-1.92-1.94-4.94-2.14-6.9-.55-1.91,1.55-2.42,4.54-1.1,6.57,1.44,2.2,4.2,2.88,6.69,1.64,1.43-.7,1.45-1.12.15-2.02-2.21,1.35-3.74,1.35-4.95-.03-1.04-1.18-1.09-3.21-.12-4.42,1.23-1.52,2.47-1.54,5.23-.04.31-.36.63-.74.98-1.16h0ZM111.27,50.09v9.46c1.15.13,1.71-.32,1.68-1.35-.02-.79,0-1.56,0-2.5h4.7v-1.61h-4.66v-2.48h5.23v-1.52h-6.95ZM94.09,59.56v-7.82c.88,0,1.59-.03,2.3,0,.61.03.72-.29.71-.8,0-.52-.04-.9-.74-.89-1.7.04-3.4,0-5.09,0h-1.91v1.6h2.95v7.89h1.75l.02.03ZM104.58,50.16c-1.08-.13-1.63.3-1.63,1.28v8.1h1.63v-9.39h0ZM125.83,59.39v-9.4h-1.54v9.4h1.54Z"/>
  <path class="cls-2" d="M48.21,42.24h-3.53c.33-.61.66-1.07.87-1.57.71-1.76.14-2.75-1.51-3.63-1.74-.92-3.35-2.1-4.99-3.21-1.25-.85-2.45-1.77-3.78-2.74,2.16-2.24,4.25-4.42,6.35-6.58.89-.9,1.82-1.75,2.69-2.66.95-1,.97-1.92-.07-2.81-.67-.57-1.48-1.06-2.3-1.32-1.4-.44-2.2.14-3.15,1.24-2.23,2.57-4.61,5-6.93,7.5-.1-.06-.2-.13-.31-.19-.02-.31-.04-.61-.05-.91,0-2.93-.05-5.85.02-8.78.04-1.39.23-2.79.49-4.16.32-1.73-.25-2.62-2.01-2.88-3.59-.54-4.19.04-4.17,3.64.03,9.03,0,18.06,0,27.1,0,.24-.04.49-.07.9-2.84-.14-5.63-.29-8.51-.43-.03-.42-.06-.78-.06-1.12v-17.34c0-9.35,7.08-16.56,16.42-16.56,44.29-.03,88.59-.05,132.88.02,7.21,0,12.36,3.62,15.16,10.25.74,1.75,1.08,3.78,1.13,5.69.14,6,.04,11.99.07,17.99,0,.88-.29,1.1-1.1,1.13-1.98.05-3.96.2-6.06.31v-5.46h-9.56v-3.19h8.99v-9.05h-8.98v-3.1h9.45v-9.01h-19.86v30.94c-3.73.2-7.32.4-11.01.6v-10.38h8.74v-9.07h-8.76v-3.04h9.63v-9.05h-20.02v29.42c-.09.02-.18.04-.27.06-.31-.81-.62-1.62-.93-2.43-3.29-8.72-6.58-17.42-9.84-26.16-.3-.79-.68-1.01-1.48-.99-2.78.05-5.56.05-8.35,0-.73,0-1.07.22-1.33.92-3.2,8.4-6.44,16.79-9.67,25.18-.7,1.82-1.42,3.63-2.08,5.46-.21.58-.47.78-1.08.75-1.17-.06-2.35-.02-3.81-.02.75-.61,1.29-1,1.77-1.45,2.83-2.69,3.48-6.15,3.27-9.84-.26-4.66-3.29-6.97-7.32-8.37-1.19-.42-2.41-.75-3.61-1.14-.38-.12-.76-.24-1.1-.42-.62-.33-1.56-.71-1.21-1.52.26-.59,1.13-1.15,1.81-1.26,1.98-.33,3.66.53,5.18,1.73.33.26.67.53,1.06.85,1.45-2.83,2.85-5.55,4.37-8.52-1.44-.64-2.78-1.39-4.22-1.87-3.69-1.22-7.42-1.83-11.27-.62-4.32,1.36-7.32,5.14-7.59,9.69-.15,2.67-.14,5.4,1.92,7.41,1.15,1.12,2.65,1.98,4.12,2.66,1.56.72,3.28,1.09,4.93,1.62.24.07.5.14.71.25.79.43,1.73.8,1.61,1.92-.14,1.17-1.1,1.55-2.1,1.73-1.56.27-3.04-.14-4.37-.91-1.33-.79-2.55-1.75-3.95-2.74-.72,1.34-1.49,2.74-2.25,4.15-.75,1.4-1.48,2.8-2.29,4.34.91.61,1.79,1.21,2.85,1.92h-4.71c-.84-1.7-.96-3.44-.95-5.26.05-7.04,0-14.09.04-21.13,0-.85.14-1.73.37-2.55.59-2.17-.45-3.65-2.69-3.57-.83.03-1.72.27-2.47.64-1.07.51-1.68,1.92-1.15,2.85,1.13,1.95.93,4.04.94,6.11v1.87c-.34-.39-.54-.61-.73-.83-1.87-2.19-4.07-2.32-6.19-.36-1.64,1.53-2.57,3.49-3.18,5.58-1.21,4.17-1.01,8.37.09,12.52.35,1.33,1.17,2.53,1.82,3.89-1.45-.08-2.98-.14-4.49-.27-.18-.02-.42-.38-.47-.61-.29-1.63-.69-3.25-.74-4.89-.12-3.29,0-6.58-.05-9.86-.03-1.45.23-2.77.89-4.06.89-1.74.43-2.7-1.43-3.25-.59-.17-1.2-.27-1.81-.33-1.98-.16-3.17.92-3.14,2.92.05,5.66.14,11.34.23,17,.02.89.15,1.79.23,2.72v.02ZM51.24,9.38h0c-.18,0-.36-.02-.54,0-2.03.09-2.33.44-2.33,2.47,0,.73-.13,1.51-.4,2.19-.41,1.03-.11,1.8.79,2.12,1.09.39,2.28.61,3.43.68.98.06,1.41-.61,1.39-1.63,0-1.07.05-2.15.26-3.19.4-2.02.1-2.48-1.98-2.62-.22,0-.43,0-.65,0h.02Z"/>
  <path class="cls-2" d="M132.24,42.46c-2.06,0-3.9.04-5.74-.04-.3,0-.7-.44-.83-.77-.52-1.26-.92-2.58-1.46-3.84-.14-.33-.65-.69-.99-.7-3.76-.05-7.51-.05-11.26,0-.34,0-.84.38-.99.71-.59,1.27-1.04,2.62-1.61,3.9-.14.32-.58.69-.89.7-1.8.06-3.6.04-5.6.04.63-1.66,1.2-3.2,1.79-4.72,3-7.78,6.02-15.55,8.97-23.35.3-.79.67-1.04,1.47-1.01,1.77.05,3.54.05,5.31,0,.69-.02,1.03.19,1.27.84,2.37,6.36,4.75,12.7,7.14,19.05.93,2.47,1.87,4.92,2.8,7.39.2.53.37,1.07.62,1.8h0ZM122.39,32.93c-.07-.32-.11-.56-.19-.79-1.15-3.46-2.3-6.92-3.43-10.38-.17-.53-.34-.87-1.01-.85-.64.02-1.03.12-1.26.83-.82,2.57-1.74,5.12-2.6,7.69-.38,1.14-.72,2.29-1.1,3.5h9.6Z"/>
  <path class="cls-2" d="M96.68,14.55c-.7,1.38-1.37,2.69-2.06,4.04-.91-.35-1.75-.74-2.64-1-1.52-.45-3.04-.53-4.56.06-1.4.55-2.3,1.53-2.41,3.04-.11,1.44.55,2.6,1.84,3.17,1.71.76,3.48,1.39,5.27,1.92,6.28,1.87,7.4,6.34,5.4,12-.82,2.34-2.69,3.73-4.93,4.55-5.16,1.91-9.99.89-14.76-1.84.79-1.49,1.55-2.94,2.31-4.35,1.19.62,2.27,1.27,3.41,1.76,1.91.8,3.9,1.05,5.91.26,1.7-.67,2.65-2.04,2.66-3.72,0-1.8-1.06-2.91-2.56-3.54-1.59-.67-3.25-1.17-4.91-1.67-4.97-1.51-6.73-3.91-5.64-9.68.64-3.36,2.85-5.59,6.15-6.49,3.97-1.07,7.78-.21,11.52,1.49h0Z"/>
  <path class="cls-2" d="M173.43,18.11h-9.52v7.41h9v4.71h-9v7.51h9.53v3.5c-5.13.3-10.23.6-15.48.89-.02-.42-.05-.76-.05-1.1,0-8.82,0-17.63-.03-26.45,0-.95.23-1.23,1.2-1.22,4.41.05,8.82.02,13.22.03.35,0,.7.04,1.12.05v4.68Z"/>
  <path class="cls-2" d="M136.58,13.44h15.54v4.62h-9.62v7.43h8.77v4.71h-8.8v12.16h-5.9V13.44h0Z"/>
  <path class="cls-2" d="M175.71,64.85c-1.81,1.31-3.64,2.1-5.64,2.45-1.42.24-2.86.42-4.3.42-43.86.03-87.72.02-131.58.02-3.55,0-6.86-.79-9.84-2.92,50.38,3.27,100.75,3.28,151.34.03h0Z"/>
  <path class="cls-2" d="M61.85,33.12c.25-2.14.45-4.15.74-6.14.08-.6.33-1.18.62-1.73.53-1.02,1.26-1.09,1.71-.05.68,1.62,1.29,3.31,1.59,5.02.51,2.87,0,5.7-1.17,8.36-.23.55-1.02,1.36-1.33,1.27-.61-.18-1.41-.82-1.53-1.4-.37-1.79-.46-3.63-.64-5.36h0Z"/>
  <path class="cls-2" d="M123.94,43.3h-12.78c.48-1.25.93-2.48,1.45-3.69.09-.2.52-.34.79-.35,2.77-.03,5.55-.03,8.32,0,.27,0,.69.16.78.37.5,1.14.91,2.32,1.43,3.68h0Z"/>
  <path class="cls-2" d="M39.82,41.93c-2.72-.14-5.44-.3-8.23-.45v-5.75c2.85,2.01,5.61,3.94,8.37,5.87-.05.11-.09.23-.14.33Z"/>
  <path class="cls-1" d="M76.24,50.09c1.81,0,3.54-.12,5.25.04,1.51.14,2.31,1.08,2.49,2.45.19,1.42-.36,2.45-1.68,3.17-.13.06-.23.16-.43.3.77,1.14,1.53,2.25,2.35,3.45-1.2.2-2.13.23-2.67-.94-.19-.42-.58-.75-.78-1.17-.57-1.22-1.57-1.29-2.84-1.14v3.19h-1.68v-9.36h0ZM77.99,54.66c.96,0,1.85.05,2.75-.02.89-.07,1.5-.54,1.51-1.51,0-.99-.65-1.44-1.51-1.53-.88-.09-1.78-.02-2.75-.02,0,0,0,3.07,0,3.07Z"/>
  <path class="cls-1" d="M145.66,49.53c1.56,0,3.24-.21,4.84.05,2.4.39,3.74,2.32,3.67,4.76-.07,2.24-1.57,4.05-3.86,4.41-1.35.21-2.73.19-4.09.21-.18,0-.53-.37-.54-.58-.04-2.92-.03-5.83-.03-8.85h0ZM147.31,57.28c2.43.3,3.93-.19,4.63-1.43.61-1.07.54-2.8-.2-3.69-1.21-1.45-2.81-1.36-4.43-1.1v6.21Z"/>
  <path class="cls-1" d="M70.13,59.35c-2.24,0-4.26.03-6.28-.03-.29,0-.81-.42-.81-.65,0-2.82.06-5.63.13-8.44,0-.1.06-.2.11-.34h6.92v1.49h-5.29v2.43h4.49c.34,1.55.3,1.61-1.14,1.6h-3.3c-.05.08-.08.11-.08.14-.2,1.54.47,2.3,2.01,2.3h3.34c-.04.61-.06,1.05-.09,1.52v-.02Z"/>
  <path class="cls-1" d="M134.16,51.21v2.5h4.61c.32,1.39.25,1.49-1.07,1.53-1.14.03-2.29,0-3.42,0v2.45h5.33v1.51h-7.08v-9.56c2.05,0,4.2-.03,6.35.05.21,0,.52.59.54.91,0,.2-.46.6-.72.61-1.47.06-2.94.03-4.53.03h0Z"/>
  <path class="cls-1" d="M57.31,51.04c-.35.42-.68.79-.98,1.16-2.76-1.49-4-1.47-5.23.04-.98,1.21-.93,3.23.12,4.42,1.21,1.37,2.74,1.38,4.95.03,1.3.9,1.26,1.32-.15,2.02-2.49,1.24-5.26.56-6.69-1.64-1.32-2.02-.81-5.01,1.1-6.57,1.96-1.59,4.98-1.39,6.9.55h0Z"/>
  <path class="cls-1" d="M111.27,50.09h6.94v1.52h-5.23v2.48h4.66v1.61h-4.7c0,.94-.02,1.73,0,2.5.03,1.02-.53,1.47-1.68,1.35v-9.46h0Z"/>
  <path class="cls-1" d="M94.09,59.56h-1.75v-7.89h-2.95v-1.6h1.91c1.7,0,3.4.03,5.09,0,.7-.02.73.37.74.89,0,.51-.11.83-.71.8-.71-.04-1.44,0-2.3,0v7.82l-.02-.03Z"/>
  <path class="cls-1" d="M104.58,50.16v9.39h-1.63v-8.1c0-.99.54-1.42,1.63-1.28h0Z"/>
  <path class="cls-1" d="M125.83,59.39h-1.54v-9.4h1.54v9.4Z"/>
  <path class="cls-1" d="M51.24,9.38c.22,0,.43,0,.65,0,2.08.13,2.38.6,1.98,2.62-.21,1.04-.28,2.13-.26,3.19,0,1.03-.41,1.69-1.39,1.63-1.16-.07-2.34-.29-3.43-.68-.9-.33-1.21-1.09-.79-2.12.27-.68.39-1.45.4-2.19,0-2.01.3-2.38,2.33-2.47h.54-.02Z"/>
  <path class="cls-1" d="M122.39,32.93h-9.58c.38-1.21.71-2.36,1.1-3.5.86-2.57,1.78-5.11,2.6-7.69.23-.71.61-.81,1.26-.83.67-.02.84.31,1.01.85,1.13,3.47,2.29,6.92,3.43,10.38.08.23.12.48.19.79h-.02ZM119.43,30.76c-.59-1.78-1.14-3.45-1.69-5.13-.08,0-.15.02-.23.02-.55,1.68-1.11,3.36-1.69,5.1h3.61Z"/>
  <path class="cls-2" d="M77.99,54.66v-3.07c.97,0,1.87-.07,2.75.02.86.09,1.52.53,1.51,1.53,0,.98-.62,1.45-1.51,1.51-.89.07-1.79.02-2.75.02Z"/>
  <path class="cls-2" d="M147.31,57.28v-6.21c1.63-.26,3.22-.35,4.43,1.1.74.89.8,2.63.2,3.69-.7,1.23-2.2,1.73-4.63,1.43Z"/>
  <path class="cls-2" d="M119.43,30.76h-3.61c.58-1.75,1.13-3.43,1.69-5.1.08,0,.15-.02.23-.02.55,1.68,1.1,3.35,1.69,5.13h0Z"/>
</svg>