<?xml version="1.0" encoding="UTF-8"?>
<svg id="Capa_2" data-name="Capa 2" xmlns="http://www.w3.org/2000/svg" viewBox="0 0 541.91 246.59">
  <defs>
    <style>
      .cls-1 {
      fill: #60BFB2;
      }

      .cls-1, .cls-2, .cls-3, .cls-4 {
      stroke-width: 0px;
      }

      .cls-2 {
      fill: #8607df;
      }

      .cls-3 {
      fill: #FFB54A;
      }

      .cls-4 {
      fill: #e3175f;
      }
    </style>
  </defs>
  <g id="Capa_1-2" data-name="Capa 1">
    <g>
      <path class="cls-3"
        d="m42.41,98.03s17.63-30.85,45.17-29.38c0,0,23.87.37,20.2,40.39,0,0-3.67,59.49,17.26,76.01,0,0,33.78,40.39,179.93,39.66,0,0,154.96,0,219.96-42.23,0,0,9.91-5.14,15.42,5.14,0,0,6.24,9.91-6.24,16.16,0,0-87.03,46.27-230.98,42.6,0,0-129.99-.73-182.5-34.15,0,0-34.15-20.56-35.99-61.69l.37-48.84s.73-11.38-4.77-9.91c0,0-16.89,6.24-44.43,63.16,0,0-9.91,28.28-12.85,55.45,0,0-.73,12.85-12.85,12.12,0,0-12.85.73-9.55-16.89L22.94,73.79s2.2-12.85,14.69-11.02c0,0,11.75,1.84,8.45,14.32l-3.67,20.93Z" />
      <path class="cls-1"
        d="m253.19,127.04c-10.28-4.78-16.89,7.71-16.89,7.71-23.14,33.05-34.89,28.64-34.89,28.64-24.97,0-26.44-27.17-26.44-27.17,58.75-7.35,63.9-47.01,63.9-47.01,3.67-30.48-23.87-33.78-23.87-33.78-42.23-2.2-59.49,55.82-59.49,55.82l-14.81-5.27c-10.28-3.43-13.22,3.18-13.22,3.18-4.65,9.31,1.71,15.43,1.71,15.43,5.39,3.91,23.01,9.06,23.01,9.06,5.88,46.63,44.44,50.3,44.44,50.3,37.82,2.21,58.02-40.39,58.02-40.39,8.81-10.65-1.47-16.52-1.47-16.52Zm-37.09-48.23s15.66,21.05-38.44,33.78c0,0,22.77-44.55,38.44-33.78Z" />
      <path class="cls-4"
        d="m333.84,66.56c-16.12-.38-25.49,6.74-25.49,6.74.95-36.86-1.47-61.51-1.47-61.51C306.76.72,296.52,0,296.52,0c-12.5-.12-11.77,10.36-11.77,10.36,4.84,116.32-6.6,158.56-6.6,158.56-6.49,23.94,6.26,24.61,6.26,24.61,11.41,2.68,12.69-7.37,12.69-7.37l2.25-8.25c16.87,10.87,31.31,10.87,31.31,10.87,44.43,1.13,45.92-47.61,45.92-47.61,3-73.86-42.74-74.61-42.74-74.61Zm-.75,101.23c-11.99,1.12-27.74-15-27.74-15,2.25-7.87,5.25-53.24,5.25-53.24,9.75-11.62,20.06-10.87,20.06-10.87,24.18-.75,25.3,40.49,25.3,40.49,0,42.37-22.87,38.62-22.87,38.62Z" />
      <path class="cls-2"
        d="m428.94,79.38s-15.43,81.94,18.36,87.26c0,0,18.36,4.52,21.55-51.34,0,0,1.6-16.23-2.39-34.32,0,0-3.19-13.04,9.84-16.49,0,0,12.24-1.33,13.83,10.38,0,0,5.95,42.8-2.7,75.58,0,0-8.19,37.78-40.06,38.7,0,0-33.69,1.37-42.79-47.8,0,0-6.83-50.08,2.73-70.11,0,0,4.39-8.29,14.88-4.2,0,0,9.01,3.31,6.75,12.35Z" />
    </g>
  </g>
</svg>