<?xml version="1.0" encoding="UTF-8"?>
<svg id="Capa_4" data-name="Capa 4" xmlns="http://www.w3.org/2000/svg" viewBox="0 0 2261.21 1080">
  <defs>
    <style>
      .cls-1 {
        fill: currentColor;
        stroke-width: 0px;
      }
    </style>
  </defs>
  <path class="cls-1" d="M1131.37,712.47h-342.64V249.9h342.64v93.66h-235.28v83.38h214.72v91.37h-214.72v100.51h235.28v93.66Z"/>
  <path class="cls-1" d="M1157.63,712.47V249.9h242.13c28.17,0,52.82,4.95,73.95,14.85,21.13,9.9,37.69,23.7,49.68,41.4,11.99,17.7,17.99,38.17,17.99,61.39s-5.52,41.21-16.56,57.39c-11.05,16.19-26.84,28.65-47.4,37.4v2.28c18.27,5.34,33.88,13.62,46.83,24.84,12.94,11.23,22.84,24.47,29.7,39.69,6.85,15.23,10.28,32.18,10.28,50.83,0,26.27-6.48,49.31-19.42,69.1-12.95,19.8-30.94,35.32-53.97,46.54-23.04,11.23-49.97,16.85-80.81,16.85h-252.41ZM1264.99,430.36h119.35c16.37,0,28.74-3.71,37.12-11.14,8.37-7.42,12.56-18.18,12.56-32.27s-4.19-25.31-12.56-32.55c-8.38-7.23-20.75-10.85-37.12-10.85h-119.35v86.8ZM1264.99,618.81h126.78c21.32,0,37.49-4.57,48.54-13.71,11.04-9.14,16.56-22.07,16.56-38.83s-5.52-29.5-16.56-38.26c-11.05-8.75-27.04-13.13-47.97-13.13h-127.35v103.93Z"/>
  <path class="cls-1" d="M1787.52,719.32c-41.5,0-77.95-6.38-109.36-19.13-31.41-12.75-55.78-32.45-73.1-59.11-17.33-26.64-25.98-61.1-25.98-103.36V249.9h109.64v270.69c0,30.46,7.99,54.45,23.98,71.95,15.99,17.52,41.88,26.27,77.67,26.27s63.1-9.32,78.52-27.98c15.42-18.65,23.13-41.87,23.13-69.67V249.9h107.36v288.96c0,60.53-18.85,105.75-56.54,135.63-37.69,29.89-89.47,44.83-155.33,44.83Z"/>
  <polygon class="cls-1" points="642.54 249.9 642.54 561.13 640.26 561.13 408.98 249.9 299.9 249.9 299.9 609.9 249.46 609.9 249.46 712.69 352.26 712.69 352.26 712.47 352.26 661.98 402.69 661.98 402.69 409.8 404.98 409.8 631.69 712.47 745.33 712.47 745.33 249.9 642.54 249.9"/>
  <path class="cls-1" d="M1242.61,875.64c-7.28,0-13.53-1.35-18.74-4.06-5.22-2.7-9.3-6.62-12.25-11.73h-6.2v14.02h-20.96v-20.22h10.18v-103.75h20.07v48.7h.59c2.66-4.82,6.47-8.54,11.44-11.14,4.97-2.61,10.8-3.91,17.49-3.91,8.46,0,15.72,1.87,21.77,5.61,6.05,3.74,10.67,9.08,13.87,16.01,3.2,6.94,4.8,15.08,4.8,24.43s-1.65,17.47-4.94,24.35c-3.3,6.89-8.07,12.23-14.32,16.01-6.25,3.79-13.85,5.68-22.8,5.68ZM1239.07,858.37c8.26,0,14.58-2.56,18.96-7.67,4.38-5.11,6.57-12.15,6.57-21.1s-2.19-15.99-6.57-21.1c-4.38-5.11-10.7-7.67-18.96-7.67-7.38,0-13.28,2.12-17.71,6.35-4.43,4.23-6.64,9.94-6.64,17.12v10.63c0,7.18,2.21,12.89,6.64,17.12,4.43,4.23,10.33,6.35,17.71,6.35Z"/>
  <path class="cls-1" d="M1299.13,909.29v-16.09h20.51l8.12-19.48-38.96-88.4h20.96l27.89,64.94h.74l26.86-64.94h20.07l-37.78,88.55-8.12,19.19c-2.17,5.12-4.5,9.1-7.01,11.95-2.51,2.85-6.62,4.28-12.32,4.28h-20.96Z"/>
  <path class="cls-1" d="M1640.19,873.87h-20.51v-119.54h83.53v17.71h-63.02v32.76h58.74v17.71h-58.74v51.36Z"/>
  <path class="cls-1" d="M1717.82,873.87v-123.97h20.07v123.97h-20.07Z"/>
  <path class="cls-1" d="M1801.94,875.64c-9.35,0-17.49-1.89-24.43-5.68-6.94-3.79-12.32-9.13-16.16-16.01-3.84-6.88-5.76-15-5.76-24.35s1.89-17.46,5.68-24.35c3.79-6.89,9.17-12.22,16.16-16.01,6.99-3.79,15.2-5.68,24.65-5.68s17.76,1.87,24.65,5.61c6.88,3.74,12.2,9.05,15.94,15.94,3.74,6.89,5.61,15.05,5.61,24.5s-1.9,17.49-5.68,24.43c-3.79,6.94-9.13,12.27-16.01,16.01-6.89,3.74-15.1,5.61-24.65,5.61ZM1801.94,858.22c8.36,0,14.83-2.56,19.41-7.67,4.57-5.11,6.86-12.15,6.86-21.1s-2.29-15.94-6.86-20.96-11.05-7.53-19.41-7.53-14.71,2.53-19.33,7.6c-4.63,5.07-6.94,12.03-6.94,20.88s2.31,15.99,6.94,21.1c4.62,5.12,11.07,7.67,19.33,7.67Z"/>
  <path class="cls-1" d="M1882.37,873.87l-28.34-88.55h20.66l19.33,63.9h.74l22.58-63.9h19.78l22.73,63.9h.74l19.33-63.9h20.37l-28.19,88.55h-21.84l-22.88-63.17h-.59l-22.58,63.17h-21.84Z"/>
  <path class="cls-1" d="M2158.42,102.79v874.42H102.79V102.79h2055.63M2261.21,0H0v1080h2261.21V0h0Z"/>
  <g>
    <path class="cls-1" d="M1560.64,817.05c-.12-.7-.25-1.43-.41-2.21-.05-.23-.09-.43-.14-.66-4.4-21.37-20.92-64.92-20.92-64.92l-32.45,33.18-3.77,3.86-3.93-3.86-33.64-33.18c-18.97,54.06-20.23,68.47-20.23,68.47h.01c-.51,3.25-.75,6.84-.75,10.71,0,7.04.8,13.06,2.44,18.08,1.63,5.02,3.77,9.23,6.44,12.63,2.66,3.38,5.71,6.1,9.14,8.11,3.43,2.01,6.96,3.56,10.56,4.64,3.61,1.08,7.16,1.75,10.64,2.06,3.47.29,6.59.45,9.34.45h19.96c2.74,0,5.86-.15,9.34-.45,3.49-.29,7.03-.98,10.64-2.06,3.61-1.08,7.13-2.63,10.56-4.64,3.44-2.01,6.48-4.73,9.16-8.11,2.66-3.4,4.8-7.6,6.43-12.63,1.64-5.02,2.46-11.05,2.46-18.08,0-4.16-.29-7.93-.86-11.37h-.01ZM1544.24,840.44c-1.19,3.7-2.77,6.79-4.73,9.29-1.97,2.49-4.21,4.49-6.74,5.98-2.52,1.47-5.12,2.61-7.77,3.4-2.66.79-5.26,1.3-7.83,1.52-2.55.23-4.84.33-6.87.33h-14.69c-2.03,0-4.31-.1-6.87-.33-2.55-.23-5.17-.74-7.83-1.52-2.64-.79-5.24-1.92-7.77-3.4-2.52-1.49-4.78-3.49-6.72-5.98-1.97-2.5-3.55-5.59-4.74-9.29-1.21-3.7-1.8-8.14-1.8-13.32,0-2.85.18-5.49.55-7.89.1-.62,3.44-19.99,14.88-39.94l24.77,24.41,2.87,2.85,2.77-2.85,23.89-24.41s12.15,21.6,15.4,37.35c.05.16.08.32.1.48.1.58.2,1.12.29,1.63.42,2.53.65,5.32.65,8.39,0,5.17-.61,9.62-1.82,13.32h.01Z"/>
    <polygon class="cls-1" points="1494.58 834.81 1511.34 834.81 1502.96 844.83 1494.58 834.81"/>
  </g>
</svg>