<?xml version="1.0" encoding="UTF-8"?>
<svg id="Capa_1" data-name="Capa 1" xmlns="http://www.w3.org/2000/svg" viewBox="0 0 282.31 379.67">
  <defs>
    <style>
      .cls-1 {
        fill: gray;
        stroke-width: 0px;
      }
    </style>
  </defs>
  <path class="cls-1" d="M22.24,307.27c-.28-3.07-.97-5.87-.69-8.56.54-5.12,5.61-9.31,10.89-9.66,4.65-.31,8.95.79,12.98,3.04.89.5,1.64.85,2.21-.41-1.49-.94-3.03-1.8-4.45-2.82-9.25-6.6-8.5-19.45,1.46-24.53,3.83-1.95,7.88-1.73,11.94-.66.76.2,1.75,1.11,2.17-.48.32-1.23.85-2.23-1.01-3.01-9.42-3.94-13.46-14.47-8.89-23.17,3.02-5.74,8.09-8.4,14.42-8.86.61-.04,1.23-.11,1.83-.02,1.37.21,2.13-.17,2.37-1.68.22-1.41-.06-2.13-1.53-2.69-11.03-4.2-16.73-20.78-5.72-30.65,3-2.68,6.56-4.13,10.64-4.26.84-.03,2.28.55,2.16-1.09-.09-1.35,1.44-3.03-1.26-3.97-7.67-2.68-11.93-8.31-13.04-16.36-.91-6.6.59-12.48,5.14-17.44,2.88-3.14,6.44-5.02,10.75-5.14,1.71-.05,2.41-.63,2.92-2.36.79-2.63.37-4.48-1.18-6.86-4.16-6.4-3.97-13.46-1.24-20.35,2.35-5.94,6.39-10.52,12.57-12.82,3.54-1.32,7.17-1.14,10.83-.58.63.1,1.44-.2,1.99-.58.99-.69,1.9-1.54,2.73-2.42.46-.48.95-1.14,1.02-1.76.42-4.06.8-8.13,1.07-12.21.62-9.57,1.12-19.14,1.74-28.71.51-7.92,1.15-15.83,1.66-23.75.03-.44-.53-1.18-.98-1.34-3.21-1.17-6.35-.9-9.34.75-.91.5-1.76,1.09-2.64,1.64-1.12.71-2.15.5-2.9-.51-.75-1.01-.72-2.28.36-2.91,2.19-1.27,4.43-2.61,6.83-3.29,2.31-.66,4.85-.52,7.4-.73-1.89-1.53-4.02-2.46-6.41-2.69-5.4-.53-10.43.45-14.93,3.66-.62.44-1.47.95-2.11.84-.71-.12-1.63-.81-1.85-1.46-.21-.63.12-1.92.63-2.22,2.7-1.59,5.4-3.39,8.35-4.28,2.88-.88,6.07-.76,9.17-1.08-.49-.27-1.11-.61-1.74-.96-4.74-2.67-9.87-4.11-15.23-4.8-1.48-.19-2.24-1.04-2.15-2.43.09-1.35.98-2.06,2.39-1.92,9.21.96,17.58,3.85,24.21,10.67.26.26.49.55.75.81.07.07.22.08.61.2-.19-.7-.28-1.26-.5-1.76-1.86-4.32-5.25-7.09-9.33-9.14-.93-.46-1.87-.89-2.79-1.37-1.1-.58-1.33-1.56-.99-2.66.36-1.16,1.33-1.38,2.37-1.18,1.01.2,2.05.41,2.97.86,6.25,3.07,11.25,7.3,12.91,14.48.04.15.19.28.45.64.12-.49.26-.78.26-1.08,0-5.2-.92-10.17-3.51-14.76-.24-.42-.35-.91-.56-1.34-.63-1.25-.11-2.13.95-2.76,1.15-.67,2.08-.31,2.8.77,2.74,4.16,4.29,8.79,4.63,13.7.26,3.73-.11,7.49-.2,11.46,3.71.62,5.63,4.19,7.72,7.29,7.78,11.53,15.35,23.2,22.98,34.83,2.68,4.08,5.3,8.2,7.89,12.34.61.98,1.28,1.37,2.46,1.47,20.69,1.79,39.53,8.3,55.17,22.43,12.47,11.26,20.65,25.38,26.15,41.11,3.46,9.91,5.4,20.09,5.21,30.65-.25,13.71-6.02,24.62-16.43,33.31-8.01,6.68-17.28,10.83-27.24,13.84,1.02,3.11,1.94,6.18,3.08,9.18.22.59,1.22,1.1,1.94,1.24,7.28,1.44,14.32,3.55,20.7,7.41,6.46,3.9,11.6,8.92,13.32,16.66,2.09,9.39-4.32,18.69-13.84,19.97-1.81.24-3.63.35-5.69.54,4.5,11.99,10.87,23.32,13.33,36.26,3-.2,5.97-.57,8.94-.57,6.15.01,12.42-.49,18.43.52,10.6,1.77,16.79,8.9,18.88,19.18,2.22,10.88-.65,20.46-9.11,28-4.42,3.93-9.75,5.92-15.54,6.71-9.94,1.36-19.88.6-29.79-.35-5.81-.56-11.59-1.46-17.39-2.17-.77-.09-1.63-.13-2.36.09-11.12,3.34-22.53,4.09-34.04,3.83-1.26-.03-2.11.35-3.06,1.17-5.64,4.84-12.28,7.48-19.63,8.05-14.41,1.11-28.74.06-42.45-4.54-7.51-2.52-15.15-2.9-22.79-3.83-10.42-1.27-20.65-3.34-30.69-6.35-10.79-3.23-21.08-7.6-30.49-13.88-7.06-4.71-13.43-10.17-18.63-16.92-2.83-3.68-4.75-7.79-5.48-12.41-.79-4.98,1.94-9.49,7.35-11.2,3.69-1.16,7.6-1.61,11.42-2.35,1.24-.24,2.5-.39,3.34-.52ZM174.91,365.01c8.09.14,15.81-.02,23.44-1.71,6.18-1.37,12.04-3.58,16.58-8.04,13.36-13.13,17.63-29.04,13.64-47.24-.43-1.96-1.16-3.85-1.76-5.78-.17.03-.34.07-.51.1,0,.83.02,1.65,0,2.48-.19,6.51-2.48,12.07-7.76,16.05-7.89,5.94-17.05,6.9-26.48,6.12-10.38-.86-19.71-4.81-28.29-10.55-14.71-9.83-23.92-23.22-26.19-41.03-1.54-12.07-.56-23.99,2.14-35.79.9-3.95,2.24-7.8,3.4-11.81-.65-.14-1.3-.29-1.95-.41-4.97-.87-10-1.5-14.91-2.67-4.36-1.03-8.65-2.47-12.84-4.08-2.65-1.02-3.06-2.68-1.32-4.9,2.02-2.58,4.18-5.15,6.71-7.2,13.5-10.92,28.61-17.14,46.4-16.85,11.69.19,23.42-.88,35.1-1.83,8.43-.69,16.81-2.01,25.18-3.24,4.39-.65,8.73-1.66,13.06-2.66.68-.16,1.65-1.12,1.67-1.74.12-5.18.57-10.42-.07-15.52-1.37-10.94-4.8-21.33-9.66-31.26-8.32-17-19.97-30.77-37.46-38.89-12.09-5.61-24.69-9.08-38.15-8.63-10.51.35-20.59,2.81-30.44,6.38-6.94,2.51-13.46,5.82-18.93,10.83-12.84,11.76-20.52,26.47-23.26,43.53-1.71,10.63-2.29,21.45-3.4,32.18-.82,7.88-1.56,15.77-2.54,23.63-1.59,12.76-4.09,25.35-6.99,37.88-3.57,15.43-7.67,30.68-13.59,45.41-3.63,9.02-9.13,16.21-18.25,20.22-4.95,2.18-10.2,3.17-15.48,4.14-4.36.8-8.75,1.51-13.03,2.64-3.09.82-4.4,3.45-3.75,6.57.27,1.3.71,2.59,1.27,3.79,3.15,6.69,8.26,11.75,13.94,16.26,10.89,8.65,23.26,14.41,36.48,18.48,9.28,2.85,18.79,4.6,28.4,5.85,2.44.32,4.89.52,7.33.77-.68-1.18-1.54-2.01-2.4-2.85-3-2.94-5.42-6.28-7.02-10.18-3.05-7.46-3.26-14.86.93-21.96,1.02-1.73,2.6-3.19,4.12-4.55.99-.89,2.26-.5,3.08.52.84,1.05.41,1.95-.47,2.88-4.61,4.84-5.77,10.75-4.36,16.99,1.7,7.5,6.14,13.33,12.53,17.61,6.04,4.04,12.82,6.13,19.89,7.39,2.53.45,5.08.77,7.62,1.16-7.28-7.46-10.53-16.24-9.8-26.41.75-10.54,6.8-17.65,16.04-23.07-3.04-.3-5.5-.76-7.95-.74-4.81.03-9.63.13-14.41.58-2.5.24-4.94,1.25-7.39,1.96-1.48.43-2.68.25-3.35-1.26-.69-1.55.1-2.42,1.5-2.94,1.25-.47,2.48-1.03,3.76-1.38,10.58-2.9,21.13-2.15,31.63.49,1.75.44,3.35.69,5.17.22,8.49-2.23,16.59-1.03,24.11,3.44,9.65,5.74,13.64,14.63,13.39,25.55-.12,5.22-1.4,10.24-4.35,15.07ZM198.18,224.89c-8.35,1.13-16.33,2.35-24.35,3.27-7.78.89-15.61.85-23.41.03-1.49-.16-2.37.16-2.95,1.6-2.81,7.05-4.84,14.34-5.44,21.89-.52,6.55-.63,13.17-.38,19.73.31,8,2.49,15.6,6.52,22.58,7.36,12.75,18.55,20.8,32.1,25.83,8.65,3.22,17.59,4.12,26.59,1.83,6.8-1.73,12.38-5.32,14.48-12.57,1.34-4.61,1.04-9.39-.02-13.96-1.37-5.91-3.11-11.76-5.05-17.51-3.92-11.58-8.12-23.06-12.12-34.61-2.13-6.14-4.07-12.34-5.97-18.13ZM116.15,217c.74.33,1.33.66,1.95.87,9.45,3.21,19.18,5.21,29.1,5.78,7.85.45,15.75.3,23.61.08,11.09-.31,21.9-2.49,32.43-5.9,9.68-3.13,18.54-7.78,25.89-14.99,4.04-3.97,7.13-8.57,9.35-14.08-.69.16-1.14.3-1.6.36-11.86,1.75-23.68,3.89-35.59,5.13-11.7,1.22-23.5,1.51-35.25,2.23-5.17.31-10.39.29-15.49,1.09-7.98,1.26-15.2,4.7-21.97,9.05-4.53,2.91-8.67,6.28-12.43,10.37ZM144.59,375.03c1.94-.16,3.9-.24,5.83-.48,5.76-.71,10.98-2.73,15.31-6.69,6.04-5.52,8.37-12.6,8.13-20.57-.17-5.68-1.79-11-5.81-15.2-7.3-7.63-16.26-9.4-26.19-6.72-14.65,3.96-22.66,17.05-19.33,31.31,2.66,11.4,10.99,18.29,22.07,18.35ZM215.48,361.91c11.86,1.73,23.29,2.57,34.62,2.36-8.41-18.09-4.66-33.06,10.81-45.37-8.48-1.42-16.84.3-25.29.64-.59,16.98-6.42,31.36-20.14,42.37ZM277.16,340.17c-.18-1.63-.24-3.29-.55-4.89-1.09-5.59-3.49-10.4-8.59-13.39-.6-.35-1.74-.44-2.29-.1-2.16,1.33-4.48,2.61-6.22,4.4-7.15,7.37-10.05,16.26-8.53,26.45.55,3.7,1.71,7.25,4.42,10.03.45.46,1.25.84,1.87.82,1.26-.05,2.55-.28,3.76-.65,9.83-3.03,15.94-11.71,16.13-22.66ZM207.49,238.3c.19.98.21,1.29.31,1.57,3.56,10.1,7.09,20.21,10.71,30.28,1.68,4.68.55,4.05,5.71,3.83,5.43-.24,11.78-4.03,12.63-10.67.61-4.78-1.01-8.76-3.93-12.32-3.55-4.32-8.24-7.04-13.39-8.93-3.79-1.39-7.72-2.42-12.04-3.75ZM110.35,85.79c10.82-8.6,23.12-11.65,36.48-12.07-2.79-4.34-5.43-8.49-8.13-12.61-.2-.3-.8-.53-1.19-.5-7.47.56-14.42,2.78-20.79,6.73-3.3,2.04-6.37,4.16-5.99,8.89.24,3.04-.22,6.14-.39,9.55ZM135.77,56.19c-2.54-3.83-4.92-7.42-7.34-10.99-.18-.27-.74-.47-1.08-.42-5.19.77-10.03,2.46-14.17,5.78-.52.42-.84,1.29-.93,2-.3,2.48-.49,4.97-.68,7.46-.14,1.82-.2,3.65-.3,5.64,9.45-6.23,11.47-7.01,24.5-9.47ZM75.88,149.72c-.22-.04-.46-.13-.68-.12-3.85.14-6.67,2.17-8.82,5.13-3.71,5.11-3.64,13.63.09,18.98,1.75,2.52,3.91,4.59,7.08,5.83.79-10.06,1.57-19.9,2.35-29.82ZM109.67,95.91c13.54-7.47,27.84-11.35,43.2-12.48-.84-1.35-1.62-2.42-2.22-3.59-.65-1.27-1.56-1.71-2.97-1.55-2.9.33-5.84.44-8.73.84-10.35,1.44-19.79,4.97-27.68,12.1-1.4,1.26-1.47,2.76-1.6,4.68ZM72.34,193.7c-2.81-.32-5.09.43-7.19,1.74-5.43,3.38-6.57,9.57-4.68,15.52,1.13,3.54,3.2,6.42,6.63,8.13,1.1.55,1.76.47,1.95-1.03.47-3.74,1.14-7.46,1.64-11.19.59-4.33,1.09-8.67,1.65-13.16ZM65.95,233.07c-5.93-.89-11.89,2.78-13.41,7.96-1.87,6.37,1.29,12.52,8.08,15.41,1.77-7.78,3.54-15.52,5.33-23.37ZM49.76,287.74c.2-.26.4-.43.48-.65,2.1-5.95,4.2-11.91,6.21-17.89.11-.33-.52-1.29-.91-1.36-1.66-.28-3.36-.46-5.05-.46-4.45.02-8.53,4.05-8.7,8.48-.21,5.37,2.37,9.26,7.97,11.87ZM80.15,132.69c2.27-4.52,4.26-9.15,6.83-13.44,2.61-4.35,5.78-8.36,8.74-12.57-5.91-.72-10.24,2.06-13.48,6.61-4.31,6.06-4.63,12.66-2.09,19.39ZM44.24,296.64c-3.06-1.82-6.14-3.07-9.56-3.12-7.05-.1-10.61,5.27-7.5,11.3.25.48,1.13,1.06,1.57.96,6-1.42,11.29-4.12,15.5-9.14ZM112.6,44.65c4.23-1.57,8.28-3.07,12.53-4.65-1.93-2.49-3.9-5.1-5.94-7.66-.91-1.14-2.24-1.38-3.47-.74-.89.46-2.12,1.26-2.23,2.04-.49,3.72-.64,7.48-.9,11.01Z"/>
  <path class="cls-1" d="M84.05,266.8c-.08-5.17.83-9.57,3.83-13.34.74-.93,1.52-1.94,2.87-1.03,1.34.91,1.2,2.12.51,3.38-3.21,5.82-3.64,11.89-1,17.93,3.39,7.77,11.36,11.61,19.63,10.74,3.31-.35,6.24-1.51,8.88-3.51,7.99-6.08,7.16-17.16,1.39-23.53-5.42-5.98-12.31-8.98-20.21-9.88-1.39-.16-2.59-.52-2.64-2.18-.04-1.33,1.1-2.26,2.82-2.15,9.91.6,18.02,4.87,24.4,12.36,3.13,3.67,4.76,8.1,4.9,12.93.31,10.48-6.07,18.52-16.44,20.39-8.68,1.56-16.5-.42-22.84-6.86-4.27-4.34-6.41-9.57-6.1-15.24Z"/>
  <path class="cls-1" d="M136.98,130.58c5.2,0,8.91,4.07,8.89,9.76-.01,5.23-3.9,9.76-8.42,9.8-5.66.05-9.75-4.16-9.76-10.03,0-5.28,4.13-9.53,9.28-9.53ZM138.46,135.25c-1.51.01-2.62,1.15-2.61,2.69,0,1.47,1.33,2.69,2.9,2.65,1.54-.03,2.62-1.15,2.6-2.69-.02-1.51-1.28-2.66-2.89-2.65Z"/>
  <path class="cls-1" d="M112.28,162.56c.01-2.91,3.7-7.01,7.85-7.35,1.89-.16,3.95.02,5.72.64,4.47,1.56,5.91,6.86,3.12,10.69-3.19,4.37-9.85,5.56-14.01,2.51-1.88-1.37-2.73-3.21-2.68-6.49ZM122.12,158.73c-1.89-.19-3.64.62-5.09,2-2.03,1.92-1.31,5.3,1.28,6.02,1.98.55,3.97.39,5.83-.6,2.11-1.12,3-2.78,2.54-4.7-.44-1.83-1.9-2.74-4.55-2.71Z"/>
</svg>